<?xml version="1.0" encoding="UTF-8"?>
<svg width="700pt" height="700pt" version="1.1" viewBox="0 0 700 700" xmlns="http://www.w3.org/2000/svg" xmlns:xlink="http://www.w3.org/1999/xlink">
 <defs>
  <symbol id="v" overflow="visible">
   <path d="m0.92188-0.0625c-0.054687 0.03125-0.10547 0.054688-0.15625 0.0625-0.042969 0.0078125-0.09375 0.015625-0.15625 0.015625-0.16797 0-0.30469-0.046875-0.40625-0.14062-0.09375-0.09375-0.14062-0.21875-0.14062-0.375s0.046875-0.28125 0.14062-0.375c0.10156-0.09375 0.23828-0.14062 0.40625-0.14062 0.0625 0 0.11328 0.007813 0.15625 0.015625 0.050781 0.011719 0.10156 0.027344 0.15625 0.046875v0.21875c-0.054687-0.03125-0.10547-0.050781-0.15625-0.0625-0.042969-0.019531-0.089844-0.03125-0.14062-0.03125-0.085938 0-0.15625 0.03125-0.21875 0.09375-0.054688 0.054687-0.078125 0.13281-0.078125 0.23438 0 0.10547 0.023437 0.1875 0.078125 0.25 0.0625 0.054688 0.13281 0.078125 0.21875 0.078125 0.050781 0 0.097656-0.003906 0.14062-0.015625 0.050781-0.019531 0.10156-0.046875 0.15625-0.078125z"/>
  </symbol>
  <symbol id="d" overflow="visible">
   <path d="m0.67188-0.54688c-0.023437-0.007813-0.042969-0.015625-0.0625-0.015625-0.023437-0.007812-0.042969-0.015625-0.0625-0.015625-0.0625 0-0.10938 0.023437-0.14062 0.0625-0.03125 0.042969-0.046875 0.10156-0.046875 0.17188v0.34375h-0.25v-0.75h0.25v0.125c0.03125-0.050781 0.0625-0.085938 0.09375-0.10938 0.039063-0.019531 0.09375-0.03125 0.15625-0.03125h0.015625 0.046875z"/>
  </symbol>
  <symbol id="b" overflow="visible">
   <path d="m0.85938-0.375v0.0625h-0.5625c0.007813 0.0625 0.03125 0.10938 0.0625 0.14062 0.039063 0.023437 0.09375 0.03125 0.15625 0.03125 0.050781 0 0.10156-0.003906 0.15625-0.015625 0.050781-0.019531 0.10156-0.046875 0.15625-0.078125v0.1875c-0.054687 0.023438-0.10938 0.039062-0.17188 0.046875-0.054688 0.0078125-0.10938 0.015625-0.17188 0.015625-0.13672 0-0.24219-0.03125-0.3125-0.09375-0.074219-0.070313-0.10938-0.17188-0.10938-0.29688s0.035156-0.21875 0.10938-0.28125c0.070313-0.070312 0.17188-0.10938 0.29688-0.10938s0.21875 0.039063 0.28125 0.10938c0.070312 0.0625 0.10938 0.15625 0.10938 0.28125zm-0.23438-0.078125c0-0.050781-0.015625-0.085937-0.046875-0.10938-0.023437-0.03125-0.058594-0.046875-0.10938-0.046875-0.042969 0-0.078125 0.015625-0.10938 0.046875-0.03125 0.023438-0.046875 0.058594-0.046875 0.10938z"/>
  </symbol>
  <symbol id="c" overflow="visible">
   <path d="m0.45312-0.34375c-0.054687 0-0.09375 0.011719-0.125 0.03125-0.023437 0.023438-0.03125 0.046875-0.03125 0.078125s0.007813 0.058594 0.03125 0.078125c0.019531 0.011719 0.050781 0.015625 0.09375 0.015625 0.039063 0 0.078125-0.015625 0.10938-0.046875s0.046875-0.070312 0.046875-0.125v-0.03125zm0.35938-0.078125v0.42188h-0.23438v-0.10938c-0.03125 0.042969-0.070313 0.074219-0.10938 0.09375-0.042969 0.019531-0.089844 0.03125-0.14062 0.03125-0.085937 0-0.15234-0.019531-0.20312-0.0625-0.042969-0.039062-0.0625-0.097656-0.0625-0.17188 0-0.09375 0.023438-0.16016 0.078125-0.20312 0.0625-0.039063 0.16016-0.0625 0.29688-0.0625h0.14062v-0.015625c0-0.039062-0.015625-0.066406-0.046875-0.078125-0.03125-0.019531-0.078125-0.03125-0.14062-0.03125-0.054687 0-0.10156 0.007813-0.14062 0.015625-0.042969 0.011719-0.085938 0.027344-0.125 0.046875v-0.1875c0.050781-0.007813 0.10156-0.015625 0.15625-0.015625 0.050781-0.007812 0.10156-0.015625 0.15625-0.015625 0.13281 0 0.22656 0.027344 0.28125 0.078125 0.0625 0.054688 0.09375 0.14062 0.09375 0.26562z"/>
  </symbol>
  <symbol id="a" overflow="visible">
   <path d="m0.375-0.96875v0.21875h0.25v0.17188h-0.25v0.3125c0 0.042969 0.003906 0.070313 0.015625 0.078125 0.019531 0.011719 0.050781 0.015625 0.09375 0.015625h0.125v0.17188h-0.20312c-0.10547 0-0.17969-0.019531-0.21875-0.0625-0.03125-0.039062-0.046875-0.10938-0.046875-0.20312v-0.3125h-0.125v-0.17188h0.125v-0.21875z"/>
  </symbol>
  <symbol id="g" overflow="visible">
   <path d="m0.625-0.64062v-0.40625h0.25v1.0469h-0.25v-0.10938c-0.03125 0.042969-0.070312 0.074219-0.10938 0.09375-0.042969 0.019531-0.089844 0.03125-0.14062 0.03125-0.09375 0-0.17188-0.035156-0.23438-0.10938-0.054688-0.070312-0.078125-0.16406-0.078125-0.28125 0-0.11328 0.023438-0.20703 0.078125-0.28125 0.0625-0.070312 0.14062-0.10938 0.23438-0.10938 0.050781 0 0.097656 0.011719 0.14062 0.03125 0.039063 0.023437 0.078125 0.054687 0.10938 0.09375zm-0.15625 0.48438c0.050781 0 0.085938-0.015625 0.10938-0.046875 0.03125-0.039063 0.046875-0.097656 0.046875-0.17188 0-0.070312-0.015625-0.125-0.046875-0.15625-0.023437-0.039062-0.058594-0.0625-0.10938-0.0625-0.054688 0-0.09375 0.023438-0.125 0.0625-0.023438 0.03125-0.03125 0.085938-0.03125 0.15625 0 0.074219 0.007812 0.13281 0.03125 0.17188 0.03125 0.03125 0.070312 0.046875 0.125 0.046875z"/>
  </symbol>
  <symbol id="l" overflow="visible">
   <path d="m0.51562-0.15625c0.050781 0 0.085937-0.015625 0.10938-0.046875 0.03125-0.039063 0.046875-0.097656 0.046875-0.17188 0-0.070312-0.015625-0.125-0.046875-0.15625-0.023438-0.039062-0.058594-0.0625-0.10938-0.0625-0.054687 0-0.09375 0.023438-0.125 0.0625-0.023437 0.03125-0.03125 0.085938-0.03125 0.15625 0 0.074219 0.007813 0.13281 0.03125 0.17188 0.03125 0.03125 0.070313 0.046875 0.125 0.046875zm-0.15625-0.48438c0.03125-0.039063 0.066406-0.070313 0.10938-0.09375 0.039062-0.019531 0.085938-0.03125 0.14062-0.03125 0.09375 0 0.16406 0.039063 0.21875 0.10938 0.0625 0.074219 0.09375 0.16797 0.09375 0.28125 0 0.11719-0.03125 0.21094-0.09375 0.28125-0.054687 0.074219-0.125 0.10938-0.21875 0.10938-0.054687 0-0.10156-0.011719-0.14062-0.03125-0.042969-0.019531-0.078125-0.050781-0.10938-0.09375v0.10938h-0.25v-1.0469h0.25z"/>
  </symbol>
  <symbol id="k" overflow="visible">
   <path d="m0.015625-0.75h0.23438l0.20312 0.51562 0.17188-0.51562h0.25l-0.3125 0.82812c-0.042969 0.082031-0.085938 0.14062-0.125 0.17188-0.042969 0.03125-0.09375 0.046875-0.15625 0.046875h-0.14062v-0.15625h0.078125c0.039062 0 0.066406-0.011719 0.078125-0.03125 0.019531-0.011719 0.035156-0.03125 0.046875-0.0625l0.015625-0.015625z"/>
  </symbol>
  <symbol id="j" overflow="visible">
   <path d="m0.125-1h0.32812l0.23438 0.53125 0.21875-0.53125h0.32812v1h-0.23438v-0.73438l-0.23438 0.54688h-0.15625l-0.23438-0.54688v0.73438h-0.25z"/>
  </symbol>
  <symbol id="i" overflow="visible">
   <path d="m0.10938-0.29688v-0.45312h0.23438v0.078125 0.15625 0.10938 0.14062c0.007812 0.023437 0.019531 0.039063 0.03125 0.046875 0.007812 0.023438 0.019531 0.039062 0.03125 0.046875 0.019531 0.011719 0.039062 0.015625 0.0625 0.015625 0.039062 0 0.078125-0.019531 0.10938-0.0625 0.03125-0.039062 0.046875-0.09375 0.046875-0.15625v-0.375h0.23438v0.75h-0.23438v-0.10938c-0.042969 0.042969-0.085938 0.074219-0.125 0.09375-0.03125 0.019531-0.074219 0.03125-0.125 0.03125-0.085938 0-0.15234-0.023438-0.20312-0.078125-0.042969-0.050781-0.0625-0.12891-0.0625-0.23438z"/>
  </symbol>
  <symbol id="h" overflow="visible">
   <path d="m0.875-0.45312v0.45312h-0.25v-0.34375-0.14062c0-0.019531-0.007812-0.039063-0.015625-0.0625-0.011719-0.007813-0.027344-0.019531-0.046875-0.03125-0.011719-0.007813-0.027344-0.015625-0.046875-0.015625-0.054687 0-0.09375 0.023438-0.125 0.0625-0.023437 0.042969-0.03125 0.09375-0.03125 0.15625v0.375h-0.25v-1.0469h0.25v0.40625c0.03125-0.039063 0.066406-0.070313 0.10938-0.09375 0.039062-0.019531 0.085938-0.03125 0.14062-0.03125 0.082031 0 0.14453 0.027344 0.1875 0.078125 0.050781 0.054688 0.078125 0.13281 0.078125 0.23438z"/>
  </symbol>
  <symbol id="f" overflow="visible">
   <path d="m0.8125-0.625c0.03125-0.050781 0.066406-0.085938 0.10938-0.10938 0.039063-0.019531 0.085937-0.03125 0.14062-0.03125 0.082031 0 0.14453 0.027344 0.1875 0.078125 0.050781 0.054688 0.078125 0.13281 0.078125 0.23438v0.45312h-0.25v-0.39062-0.015625-0.03125c0-0.050781-0.011719-0.085938-0.03125-0.10938-0.011719-0.03125-0.03125-0.046875-0.0625-0.046875-0.042969 0-0.078125 0.023438-0.10938 0.0625-0.023438 0.042969-0.03125 0.09375-0.03125 0.15625v0.375h-0.25v-0.39062c0-0.082031-0.007812-0.13281-0.015625-0.15625-0.011719-0.03125-0.039063-0.046875-0.078125-0.046875-0.042969 0-0.078125 0.023438-0.10938 0.0625-0.023437 0.042969-0.03125 0.09375-0.03125 0.15625v0.375h-0.25v-0.75h0.25v0.10938c0.03125-0.039063 0.0625-0.070313 0.09375-0.09375 0.039063-0.019531 0.082031-0.03125 0.125-0.03125 0.050781 0 0.097656 0.015625 0.14062 0.046875 0.039062 0.023438 0.070312 0.054688 0.09375 0.09375z"/>
  </symbol>
  <symbol id="u" overflow="visible">
   <path d="m0.73438-0.1875h-0.40625l-0.0625 0.1875h-0.26562l0.375-1h0.3125l0.375 1h-0.26562zm-0.34375-0.1875h0.28125l-0.14062-0.39062z"/>
  </symbol>
  <symbol id="t" overflow="visible">
   <path d="m0.10938-0.75h0.25v0.75h-0.25zm0-0.29688h0.25v0.20312h-0.25z"/>
  </symbol>
  <symbol id="s" overflow="visible">
   <path d="m0.46875-0.59375c-0.054688 0-0.09375 0.023438-0.125 0.0625-0.023438 0.03125-0.03125 0.085938-0.03125 0.15625 0 0.074219 0.007812 0.13281 0.03125 0.17188 0.03125 0.03125 0.070312 0.046875 0.125 0.046875 0.050781 0 0.085938-0.015625 0.10938-0.046875 0.03125-0.039063 0.046875-0.097656 0.046875-0.17188 0-0.070312-0.015625-0.125-0.046875-0.15625-0.023437-0.039062-0.058594-0.0625-0.10938-0.0625zm0.15625 0.48438c-0.03125 0.042969-0.070312 0.074219-0.10938 0.09375-0.042969 0.019531-0.089844 0.03125-0.14062 0.03125-0.09375 0-0.17188-0.035156-0.23438-0.10938-0.054688-0.070312-0.078125-0.16406-0.078125-0.28125 0-0.11328 0.023438-0.20703 0.078125-0.28125 0.0625-0.070312 0.14062-0.10938 0.23438-0.10938 0.050781 0 0.097656 0.011719 0.14062 0.03125 0.039063 0.023437 0.078125 0.054687 0.10938 0.09375v-0.10938h0.25v1.0312h-0.25z"/>
  </symbol>
  <symbol id="r" overflow="visible">
   <path d="m0.60938-1.0469v0.15625h-0.125c-0.042969 0-0.070313 0.011719-0.078125 0.03125-0.011719 0.011719-0.015625 0.03125-0.015625 0.0625v0.046875h0.20312v0.17188h-0.20312v0.57812h-0.25v-0.57812h-0.10938v-0.17188h0.10938v-0.046875c0-0.082031 0.019531-0.14453 0.0625-0.1875 0.050781-0.039063 0.125-0.0625 0.21875-0.0625z"/>
  </symbol>
  <symbol id="e" overflow="visible">
   <path d="m0.46875-0.59375c-0.054688 0-0.09375 0.023438-0.125 0.0625-0.023438 0.03125-0.03125 0.085938-0.03125 0.15625 0 0.074219 0.007812 0.13281 0.03125 0.17188 0.03125 0.03125 0.070312 0.046875 0.125 0.046875 0.050781 0 0.09375-0.015625 0.125-0.046875 0.03125-0.039063 0.046875-0.097656 0.046875-0.17188 0-0.070312-0.015625-0.125-0.046875-0.15625-0.03125-0.039062-0.074219-0.0625-0.125-0.0625zm0-0.17188c0.13281 0 0.23828 0.039063 0.3125 0.10938 0.070312 0.0625 0.10938 0.15625 0.10938 0.28125s-0.039063 0.22656-0.10938 0.29688c-0.074219 0.0625-0.17969 0.09375-0.3125 0.09375-0.125 0-0.22656-0.03125-0.29688-0.09375-0.074219-0.070313-0.10938-0.17188-0.10938-0.29688s0.035156-0.21875 0.10938-0.28125c0.070313-0.070312 0.17188-0.10938 0.29688-0.10938z"/>
  </symbol>
  <symbol id="q" overflow="visible">
   <path d="m0.125-1h0.29688l0.35938 0.6875v-0.6875h0.25v1h-0.29688l-0.35938-0.6875v0.6875h-0.25z"/>
  </symbol>
  <symbol id="p" overflow="visible">
   <path d="m0.875-0.45312v0.45312h-0.25v-0.34375-0.14062c0-0.019531-0.007812-0.039063-0.015625-0.0625-0.011719-0.007813-0.027344-0.019531-0.046875-0.03125-0.011719-0.007813-0.027344-0.015625-0.046875-0.015625-0.054687 0-0.09375 0.023438-0.125 0.0625-0.023437 0.042969-0.03125 0.09375-0.03125 0.15625v0.375h-0.25v-0.75h0.25v0.10938c0.03125-0.039063 0.066406-0.070313 0.10938-0.09375 0.039062-0.019531 0.085938-0.03125 0.14062-0.03125 0.082031 0 0.14453 0.027344 0.1875 0.078125 0.050781 0.054688 0.078125 0.13281 0.078125 0.23438z"/>
  </symbol>
  <symbol id="o" overflow="visible">
   <path d="m0.125-1h0.4375c0.125 0 0.21875 0.03125 0.28125 0.09375 0.070312 0.054688 0.10938 0.13281 0.10938 0.23438 0 0.10547-0.039063 0.1875-0.10938 0.25-0.0625 0.054687-0.15625 0.078125-0.28125 0.078125h-0.17188v0.34375h-0.26562zm0.26562 0.1875v0.28125h0.14062c0.050781 0 0.085938-0.007812 0.10938-0.03125 0.03125-0.03125 0.046875-0.066406 0.046875-0.10938 0-0.050781-0.015625-0.085937-0.046875-0.10938-0.023437-0.019531-0.058594-0.03125-0.10938-0.03125z"/>
  </symbol>
  <symbol id="n" overflow="visible">
   <path d="m0.10938-0.75h0.25v0.73438c0 0.10156-0.027344 0.17969-0.078125 0.23438-0.054688 0.050781-0.12109 0.078125-0.20312 0.078125h-0.125v-0.15625h0.046875c0.039062 0 0.066406-0.011719 0.078125-0.03125 0.019531-0.023438 0.03125-0.0625 0.03125-0.125zm0-0.29688h0.25v0.20312h-0.25z"/>
  </symbol>
  <symbol id="m" overflow="visible">
   <path d="m0.71875-0.73438v0.20312c-0.03125-0.019531-0.0625-0.035156-0.09375-0.046875-0.03125-0.007813-0.070312-0.015625-0.10938-0.015625-0.0625 0-0.11719 0.023438-0.15625 0.0625-0.03125 0.03125-0.046875 0.085938-0.046875 0.15625 0 0.074219 0.015625 0.13281 0.046875 0.17188 0.039063 0.03125 0.09375 0.046875 0.15625 0.046875 0.039063 0 0.078125-0.003906 0.10938-0.015625 0.039062-0.007813 0.070312-0.023437 0.09375-0.046875v0.20312c-0.03125 0.011719-0.070312 0.015625-0.10938 0.015625-0.042969 0.0078125-0.085937 0.015625-0.125 0.015625-0.13672 0-0.24219-0.03125-0.3125-0.09375-0.074219-0.070313-0.10938-0.17188-0.10938-0.29688s0.035156-0.21875 0.10938-0.28125c0.070313-0.070312 0.17578-0.10938 0.3125-0.10938 0.039063 0 0.082031 0.007813 0.125 0.015625 0.039063 0 0.078125 0.007812 0.10938 0.015625z"/>
  </symbol>
 </defs>
 <g>
  <path d="m125.72 221.37h448.55c-23.113-104.55-116.6-179.88-224.29-179.88-107.68 0-201.17 75.336-224.27 179.88zm453.88 8.6719h-459.23c-1.2852 0-2.5195-0.58203-3.3438-1.582-0.82422-1.0039-1.1641-2.3203-0.90234-3.5938 21.922-111.29 120.28-192.05 233.86-192.05 113.59 0 211.95 80.773 233.87 192.05 0.25 1.2734-0.078125 2.5898-0.90234 3.5938-0.82031 1-2.0547 1.582-3.3516 1.582z" fill-rule="evenodd"/>
  <path d="m120.96 296h458.07c-0.59766-7.9102-1.6016-15.82-3.0156-23.609h-452.03c-1.4102 7.7891-2.4297 15.699-3.0273 23.609zm462.71 8.6719h-467.34c-1.1875 0-2.3281-0.48828-3.1523-1.3555-0.8125-0.86719-1.2422-2.0312-1.1758-3.2188 0.61328-11.016 2-22.074 4.1328-32.879 0.39844-2.0312 2.1797-3.5 4.2461-3.5h459.23c2.0781 0 3.8516 1.4648 4.2578 3.5 2.125 10.801 3.5117 21.863 4.1328 32.879 0.070312 1.1914-0.35938 2.3555-1.1875 3.2188-0.8125 0.86719-1.9531 1.3555-3.1484 1.3555z" fill-rule="evenodd"/>
  <path d="m129.71 370.62h440.57c2.2812-7.7031 4.168-15.613 5.6328-23.609h-451.83c1.457 7.9922 3.3516 15.902 5.625 23.609zm443.79 8.6719h-447c-1.9102 0-3.582-1.2344-4.1445-3.0469-3.3164-10.656-5.9062-21.719-7.7031-32.883-0.20312-1.2539 0.15625-2.5312 0.98438-3.5 0.82422-0.96484 2.0312-1.5234 3.2969-1.5234h462.12c1.2773 0 2.4844 0.55859 3.3086 1.5273 0.82812 0.96484 1.1758 2.2461 0.97266 3.5-1.7852 11.172-4.3828 22.234-7.6914 32.883-0.5625 1.8125-2.2461 3.0469-4.1406 3.0469z" fill-rule="evenodd"/>
  <path d="m174.5 445.25h351.01c6.3125-7.4688 12.172-15.383 17.492-23.609h-386.01c5.332 8.2305 11.191 16.141 17.504 23.609zm353.01 8.6719h-355.01c-1.2617 0-2.4609-0.55078-3.2852-1.5078-8.8086-10.234-16.793-21.293-23.75-32.879-0.80078-1.3398-0.82422-3.0078-0.058594-4.3672 0.76953-1.3594 2.2148-2.1992 3.7734-2.1992h401.64c1.5703 0 3.0039 0.83984 3.7695 2.1992 0.78125 1.3594 0.75781 3.0273-0.054688 4.3672-6.9414 11.582-14.941 22.645-23.738 32.879-0.82422 0.95703-2.0234 1.5078-3.2852 1.5078z" fill-rule="evenodd"/>
  <path d="m251.27 496.27c30.68 14.59 64.469 22.246 98.719 22.246 34.266 0 68.051-7.6562 98.73-22.246zm98.719 30.918c-41.625 0-82.594-10.895-118.49-31.496-1.7031-0.98438-2.543-2.9805-2.0312-4.8789 0.51172-1.8984 2.2227-3.2188 4.1914-3.2188h232.68c1.9648 0 3.6914 1.3203 4.1875 3.2188 0.51172 1.8945-0.32813 3.8945-2.0195 4.8789-35.898 20.598-76.879 31.496-118.5 31.496z" fill-rule="evenodd"/>
  <use x="70" y="564.101562" xlink:href="#v"/>
  <use x="71.003906" y="564.101562" xlink:href="#d"/>
  <use x="71.675781" y="564.101562" xlink:href="#b"/>
  <use x="72.605469" y="564.101562" xlink:href="#c"/>
  <use x="73.527344" y="564.101562" xlink:href="#a"/>
  <use x="74.179688" y="564.101562" xlink:href="#b"/>
  <use x="75.109375" y="564.101562" xlink:href="#g"/>
  <use x="76.5625" y="564.101562" xlink:href="#l"/>
  <use x="77.542969" y="564.101562" xlink:href="#k"/>
  <use x="78.910156" y="564.101562" xlink:href="#j"/>
  <use x="80.269531" y="564.101562" xlink:href="#i"/>
  <use x="81.242188" y="564.101562" xlink:href="#h"/>
  <use x="82.214844" y="564.101562" xlink:href="#c"/>
  <use x="83.136719" y="564.101562" xlink:href="#f"/>
  <use x="84.5625" y="564.101562" xlink:href="#f"/>
  <use x="85.988281" y="564.101562" xlink:href="#c"/>
  <use x="86.910156" y="564.101562" xlink:href="#g"/>
  <use x="88.363281" y="564.101562" xlink:href="#u"/>
  <use x="89.421875" y="564.101562" xlink:href="#a"/>
  <use x="90.078125" y="564.101562" xlink:href="#t"/>
  <use x="90.546875" y="564.101562" xlink:href="#s"/>
  <use x="70" y="565.46875" xlink:href="#r"/>
  <use x="70.59375" y="565.46875" xlink:href="#d"/>
  <use x="71.269531" y="565.46875" xlink:href="#e"/>
  <use x="72.207031" y="565.46875" xlink:href="#f"/>
  <use x="74.109375" y="565.46875" xlink:href="#a"/>
  <use x="74.761719" y="565.46875" xlink:href="#h"/>
  <use x="75.734375" y="565.46875" xlink:href="#b"/>
  <use x="77.140625" y="565.46875" xlink:href="#q"/>
  <use x="78.285156" y="565.46875" xlink:href="#e"/>
  <use x="79.222656" y="565.46875" xlink:href="#i"/>
  <use x="80.195312" y="565.46875" xlink:href="#p"/>
  <use x="81.644531" y="565.46875" xlink:href="#o"/>
  <use x="82.648438" y="565.46875" xlink:href="#d"/>
  <use x="83.320312" y="565.46875" xlink:href="#e"/>
  <use x="84.261719" y="565.46875" xlink:href="#n"/>
  <use x="84.730469" y="565.46875" xlink:href="#b"/>
  <use x="85.65625" y="565.46875" xlink:href="#m"/>
  <use x="86.46875" y="565.46875" xlink:href="#a"/>
 </g>
</svg>
