<svg xmlns="http://www.w3.org/2000/svg" version="1.1" xmlnsXlink="http://www.w3.org/1999/xlink" xmlnsSvgjs="http://svgjs.dev/svgjs" width="1000" height="625" viewBox="0 0 1000 625"><g transform="matrix(1,0,0,1,0,0)"><svg viewBox="0 0 576 360" data-background-color="#ffffff" preserveAspectRatio="xMidYMid meet" height="625" width="1000" xmlns="http://www.w3.org/2000/svg" xmlnsXlink="http://www.w3.org/1999/xlink"><g id="tight-bounds" transform="matrix(1,0,0,1,0,0)"><svg viewBox="0 0 576 360" height="360" width="576"><g><svg></svg></g><g><svg viewBox="0 0 576 360" height="360" width="576"><g><path xmlns="http://www.w3.org/2000/svg" d="M132.115 90l155.885-90 155.885 90v180l-155.885 90-155.885-90zM136.392 267.531l151.608 87.53 151.608-87.53v-175.062l-151.608-87.53-151.608 87.53z" fill="#755bb4" fill-rule="nonzero" stroke="none" stroke-width="1" stroke-linecap="butt" stroke-linejoin="miter" stroke-miterlimit="10" stroke-dasharray="" stroke-dashoffset="0" font-family="none" font-weight="none" font-size="none" text-anchor="none" style="mix-blend-mode: normal" data-fill-palette-color="tertiary"></path></g><g transform="matrix(1,0,0,1,172.8,144.4834022614681)"><svg viewBox="0 0 230.4 71.03319547706384" height="71.03319547706384" width="230.4"><g><svg viewBox="0 0 231.55199999999996 71.38836145444915" height="71.03319547706384" width="230.4"><g><svg viewBox="0 0 231.55199999999996 71.38836145444915" height="71.38836145444915" width="231.55199999999996"><g><svg viewBox="0 0 231.55199999999996 71.38836145444915" height="71.38836145444915" width="231.55199999999996"><g><rect width="231.55199999999996" height="4.298425918613639" x="0" y="52.72800334927221" fill="#755bb4" opacity="1" stroke-width="0" stroke="transparent" fill-opacity="1" class="rect-o-0" data-fill-palette-color="primary" rx="1%" id="o-0" data-palette-color="#755bb4"></rect></g><g transform="matrix(1,0,0,1,0.5759999999999934,0)"><svg viewBox="0 0 230.39999999999998 47.664412607449854" height="47.664412607449854" width="230.39999999999998"><g transform="matrix(1,0,0,1,0,0)"><svg width="230.39999999999998" viewBox="4.400000095367432 -35.5 174.49000549316406 36.099998474121094" height="47.664412607449854" data-palette-color="#755bb4"><path d="M4.4 0L4.4-34.9 16.25-34.9Q20.75-34.9 23.3-32.45 25.85-30 25.85-25.9L25.85-25.9Q25.85-22.75 24.33-20.95 22.8-19.15 20.4-18.4L20.4-18.4 20.4-18.25Q23.35-17.55 25.25-15.63 27.15-13.7 27.15-10.05L27.15-10.05Q27.15-7.95 26.45-6.1 25.75-4.25 24.48-2.9 23.2-1.55 21.48-0.78 19.75 0 17.75 0L17.75 0 4.4 0ZM8.6-3.65L16.5-3.65Q19.4-3.65 21.05-4.95 22.7-6.25 22.7-8.95L22.7-8.95 22.7-11Q22.7-13.65 21.05-14.98 19.4-16.3 16.5-16.3L16.5-16.3 8.6-16.3 8.6-3.65ZM8.6-19.75L15.8-19.75Q18.45-19.75 19.95-20.93 21.45-22.1 21.45-24.5L21.45-24.5 21.45-26.45Q21.45-28.85 19.95-30.05 18.45-31.25 15.8-31.25L15.8-31.25 8.6-31.25 8.6-19.75ZM46.15 0.6L46.15 0.6Q39.75 0.6 36.62-4.05 33.5-8.7 33.5-17.45L33.5-17.45Q33.5-26.2 36.62-30.85 39.75-35.5 46.15-35.5L46.15-35.5Q48.55-35.5 50.3-34.85 52.05-34.2 53.3-33.1 54.55-32 55.4-30.63 56.25-29.25 56.9-27.85L56.9-27.85 53.3-26.2Q52.85-27.35 52.25-28.38 51.65-29.4 50.82-30.18 50-30.95 48.87-31.4 47.75-31.85 46.15-31.85L46.15-31.85Q42-31.85 39.97-28.7 37.95-25.55 37.95-20.3L37.95-20.3 37.95-14.6Q37.95-9.35 39.97-6.2 42-3.05 46.15-3.05L46.15-3.05Q47.75-3.05 48.87-3.5 50-3.95 50.82-4.73 51.65-5.5 52.25-6.53 52.85-7.55 53.3-8.7L53.3-8.7 56.9-7.05Q56.25-5.6 55.4-4.25 54.55-2.9 53.3-1.8 52.05-0.7 50.3-0.05 48.55 0.6 46.15 0.6ZM86.75 0L66 0 66-34.9 70.2-34.9 70.2-3.65 86.75-3.65 86.75 0ZM118.49 0L114.04 0 111.09-9.95 98.84-9.95 95.89 0 91.54 0 102.24-34.9 107.79-34.9 118.49 0ZM110.09-13.6L105.19-30.45 104.74-30.45 99.84-13.6 110.09-13.6ZM128.69-14.9L128.69 0 124.49 0 124.49-34.9 137.19-34.9Q142.04-34.9 144.59-32.25 147.14-29.6 147.14-24.85L147.14-24.85Q147.14-20.6 144.94-18.05 142.74-15.5 138.54-15.1L138.54-15.1 147.44 0 142.74 0 134.24-14.9 128.69-14.9ZM128.69-18.45L137.09-18.45Q139.74-18.45 141.22-19.78 142.69-21.1 142.69-23.55L142.69-23.55 142.69-26.15Q142.69-28.6 141.22-29.93 139.74-31.25 137.09-31.25L137.09-31.25 128.69-31.25 128.69-18.45ZM173.99 0L163.44-17.1 158.44-11.2 158.44 0 154.24 0 154.24-34.9 158.44-34.9 158.44-16.7 158.59-16.7 163.19-22.5 173.49-34.9 178.54-34.9 166.29-20.2 178.89 0 173.99 0Z" opacity="1" transform="matrix(1,0,0,1,0,0)" fill="#755bb4" class="undefined-text-0" data-fill-palette-color="primary" id="text-0"></path></svg></g></svg></g><g transform="matrix(1,0,0,1,0,62.0900200097082)"><svg viewBox="0 0 135.26783999999998 9.298341444740958" height="9.298341444740958" width="135.26783999999998"><g transform="matrix(1,0,0,1,0,0)"><svg width="135.26783999999998" viewBox="1.850000023841858 -36.349998474121094 543.2900390625 37.349998474121094" height="9.298341444740958" data-palette-color="#755bb4"><path d="M13.85-0.05L13.85-32.2 1.85-32.2 1.85-34.25 28.05-34.25 28.05-32.2 16.1-32.2 16.1-0.05 13.85-0.05ZM34.1-36.35L36.2-36.35 36.2-19.9Q37.85-22.65 39.97-23.95 42.1-25.25 45.25-25.25L45.25-25.25Q53.05-25.25 53.05-17.4L53.05-17.4 53.05-0.05 50.95-0.05 50.95-16.85Q50.95-20.1 49.47-21.73 48-23.35 44.95-23.35L44.95-23.35Q42.1-23.35 40.2-22.03 38.3-20.7 36.2-17.9L36.2-17.9 36.2-0.05 34.1-0.05 34.1-36.35ZM61.4-11.75Q61.4-8.05 63.22-4.73 65.05-1.4 70.55-1.4L70.55-1.4Q72.59-1.4 74.4-1.98 76.2-2.55 78.45-3.8L78.45-3.8 79.4-2.25Q77.45-0.95 75.09-0.23 72.75 0.5 70.25 0.5L70.25 0.5Q65.05 0.5 62.17-2.8 59.3-6.1 59.3-11.65L59.3-11.65Q59.3-15.6 60.65-18.7 62-21.8 64.47-23.53 66.95-25.25 70.3-25.25L70.3-25.25Q73.2-25.25 75.47-23.93 77.75-22.6 79.02-20.28 80.3-17.95 80.3-14.95L80.3-14.95Q80.3-14.05 80.09-11.75L80.09-11.75 61.4-11.75ZM61.5-13.65L78.09-13.65Q78.2-14.2 78.2-15.05L78.2-15.05Q78.2-17.45 77.12-19.38 76.05-21.3 74.25-22.38 72.45-23.45 70.3-23.45L70.3-23.45Q66.8-23.45 64.37-20.75 61.95-18.05 61.5-13.65L61.5-13.65ZM108.79 0.45Q106.29 0.45 103.89 0.15L103.89 0.15Q101.94-0.15 100.69-0.5L100.69-0.5 100.69-36.35 102.79-36.35 102.79-20.4Q103.94-22.85 106.09-24.05 108.24-25.25 110.89-25.25L110.89-25.25Q114.04-25.25 116.39-23.65 118.74-22.05 120.02-19.13 121.29-16.2 121.29-12.4L121.29-12.4Q121.29-6.7 118.27-3.13 115.24 0.45 108.79 0.45L108.79 0.45ZM108.74-1.45Q114.24-1.45 116.72-4.53 119.19-7.6 119.19-12.35L119.19-12.35Q119.19-15.8 118.07-18.28 116.94-20.75 115.02-22.05 113.09-23.35 110.74-23.35L110.74-23.35Q109.44-23.35 108.12-22.88 106.79-22.4 105.69-21.6L105.69-21.6Q103.04-19.65 102.79-16.45L102.79-16.45 102.79-2 105.79-1.6Q106.74-1.45 108.74-1.45L108.74-1.45ZM128.29-11.75Q128.29-8.05 130.11-4.73 131.94-1.4 137.44-1.4L137.44-1.4Q139.49-1.4 141.29-1.98 143.09-2.55 145.34-3.8L145.34-3.8 146.29-2.25Q144.34-0.95 141.99-0.23 139.64 0.5 137.14 0.5L137.14 0.5Q131.94 0.5 129.06-2.8 126.19-6.1 126.19-11.65L126.19-11.65Q126.19-15.6 127.54-18.7 128.89-21.8 131.36-23.53 133.84-25.25 137.19-25.25L137.19-25.25Q140.09-25.25 142.36-23.93 144.64-22.6 145.91-20.28 147.19-17.95 147.19-14.95L147.19-14.95Q147.19-14.05 146.99-11.75L146.99-11.75 128.29-11.75ZM128.39-13.65L144.99-13.65Q145.09-14.2 145.09-15.05L145.09-15.05Q145.09-17.45 144.01-19.38 142.94-21.3 141.14-22.38 139.34-23.45 137.19-23.45L137.19-23.45Q133.69-23.45 131.26-20.75 128.84-18.05 128.39-13.65L128.39-13.65ZM160.14 0.55Q157.59 0.55 155.39-0.35 153.19-1.25 151.14-3.15L151.14-3.15 152.34-4.6Q155.99-1.35 160.19-1.35L160.19-1.35Q163.04-1.35 164.89-2.8 166.74-4.25 166.74-6.7L166.74-6.7Q166.74-8.25 165.94-9.25 165.14-10.25 163.76-10.95 162.39-11.65 159.59-12.8L159.59-12.8Q156.99-13.85 155.59-14.6 154.19-15.35 153.31-16.53 152.44-17.7 152.44-19.45L152.44-19.45Q152.44-22.25 154.51-23.95 156.59-25.65 160.04-25.65L160.04-25.65Q163.24-25.65 165.99-23.9L165.99-23.9 164.99-22.3Q162.54-23.75 160.09-23.75L160.09-23.75Q157.64-23.75 156.11-22.55 154.59-21.35 154.59-19.45L154.59-19.45Q154.59-18.4 155.16-17.68 155.74-16.95 157.09-16.23 158.44-15.5 161.34-14.25L161.34-14.25Q164.34-12.95 165.79-12.1 167.24-11.25 168.06-10.05 168.89-8.85 168.89-6.95L168.89-6.95Q168.89-3.5 166.49-1.48 164.09 0.55 160.14 0.55L160.14 0.55ZM181.23 0.65Q177.73 0.65 176.06-1.23 174.38-3.1 174.38-7L174.38-7 174.38-31.15 176.48-31.15 176.48-24.75 184.53-24.75 184.53-22.75 176.48-22.75 176.48-7Q176.48-3.8 177.91-2.53 179.33-1.25 181.18-1.25L181.18-1.25Q182.88-1.25 184.28-2L184.28-2 185.33-0.25Q183.83 0.65 181.23 0.65L181.23 0.65ZM220.13 1Q215.28 1 211.43-1.4 207.58-3.8 205.4-7.88 203.23-11.95 203.23-16.85L203.23-16.85Q203.23-21.85 205.5-26.13 207.78-30.4 211.7-32.93 215.63-35.45 220.33-35.45L220.33-35.45Q224.53-35.45 227.98-33.73 231.43-32 231.83-27.6L231.83-27.6 229.78-27.6Q229.38-30.95 226.35-32.2 223.33-33.45 220.08-33.45L220.08-33.45Q216.08-33.45 212.68-31.1 209.28-28.75 207.3-24.88 205.33-21 205.33-16.7L205.33-16.7Q205.33-12.55 207.23-8.93 209.13-5.3 212.53-3.15 215.93-1 220.18-1L220.18-1Q223.83-1 227.05-2.65 230.28-4.3 232.28-7.1L232.28-7.1 233.98-5.95Q231.53-2.5 227.88-0.75 224.23 1 220.13 1L220.13 1ZM240.13-0.05L240.13-36.35 242.23-36.35 242.23-0.05 240.13-0.05ZM267.42 0.25Q266.32-0.65 265.85-1.63 265.37-2.6 264.82-4.4L264.82-4.4Q263.02 0.45 256.82 0.45L256.82 0.45Q252.82 0.45 250.62-1.55 248.42-3.55 248.42-7.15L248.42-7.15Q248.42-11 251.07-12.95 253.72-14.9 258.87-14.9L258.87-14.9 264.72-14.9 264.72-17.1Q264.72-20.45 263.37-21.98 262.02-23.5 258.92-23.5L258.92-23.5Q256.82-23.5 254.75-22.85 252.67-22.2 251.02-20.95L251.02-20.95 250.02-22.5Q253.77-25.5 258.97-25.5L258.97-25.5Q262.97-25.5 264.9-23.58 266.82-21.65 266.82-17.65L266.82-17.65 266.82-7.05Q266.82-3.15 268.67-1L268.67-1 267.42 0.25ZM256.87-1.45Q260.42-1.45 262.57-3.48 264.72-5.5 264.72-8.75L264.72-8.75 264.72-13 259.12-13Q254.57-13 252.55-11.6 250.52-10.2 250.52-7.2L250.52-7.2Q250.52-4.4 252.22-2.93 253.92-1.45 256.87-1.45L256.87-1.45ZM284.47-25.25Q285.17-25.25 287.07-24.9L287.07-24.9 287.07-23Q285.62-23.25 284.57-23.25L284.57-23.25Q281.72-23.25 279.97-21.85L279.97-21.85Q279.22-21.2 278.37-20.18 277.52-19.15 276.92-18L276.92-18 276.92-0.05 274.82-0.05 274.82-18.1Q274.82-20.3 274.37-21.58 273.92-22.85 272.97-24.05L272.97-24.05 274.37-25.4Q275.47-24.35 276.15-23.03 276.82-21.7 276.92-20.25L276.92-20.25Q277.57-21.55 278.47-22.6 279.37-23.65 280.27-24.2L280.27-24.2Q281.97-25.25 284.47-25.25L284.47-25.25ZM302.07-13.65L311.92 0 309.57 0 301.37-11.4Q300.92-12.1 299.84-12.43 298.77-12.75 297.52-12.75L297.52-12.75 294.27-12.75 294.27 0 292.17 0 292.17-36.3 294.27-36.3 294.27-14.65 296.57-14.65Q298.27-14.65 299.29-14.75 300.32-14.85 301.17-15.3L301.17-15.3Q302.87-16.2 304.19-18.05 305.52-19.9 306.27-21.85 307.02-23.8 307.27-25L307.27-25 309.27-25Q309.12-23.2 307.92-20.73 306.72-18.25 305.09-16.25 303.47-14.25 302.07-13.65L302.07-13.65ZM337.06 0.55Q334.51 0.55 332.31-0.35 330.11-1.25 328.06-3.15L328.06-3.15 329.26-4.6Q332.91-1.35 337.11-1.35L337.11-1.35Q339.96-1.35 341.81-2.8 343.66-4.25 343.66-6.7L343.66-6.7Q343.66-8.25 342.86-9.25 342.06-10.25 340.69-10.95 339.31-11.65 336.51-12.8L336.51-12.8Q333.91-13.85 332.51-14.6 331.11-15.35 330.24-16.53 329.36-17.7 329.36-19.45L329.36-19.45Q329.36-22.25 331.44-23.95 333.51-25.65 336.96-25.65L336.96-25.65Q340.16-25.65 342.91-23.9L342.91-23.9 341.91-22.3Q339.46-23.75 337.01-23.75L337.01-23.75Q334.56-23.75 333.04-22.55 331.51-21.35 331.51-19.45L331.51-19.45Q331.51-18.4 332.09-17.68 332.66-16.95 334.01-16.23 335.36-15.5 338.26-14.25L338.26-14.25Q341.26-12.95 342.71-12.1 344.16-11.25 344.99-10.05 345.81-8.85 345.81-6.95L345.81-6.95Q345.81-3.5 343.41-1.48 341.01 0.55 337.06 0.55L337.06 0.55ZM351.66 0L351.66-25 353.91-25 353.91 0 351.66 0ZM352.76-28.75Q351.96-28.75 351.46-29.25 350.96-29.75 350.96-30.55L350.96-30.55Q350.96-31.35 351.46-31.85 351.96-32.35 352.76-32.35L352.76-32.35Q353.56-32.35 354.09-31.85 354.61-31.35 354.61-30.55L354.61-30.55Q354.61-29.75 354.09-29.25 353.56-28.75 352.76-28.75L352.76-28.75ZM362.56-17.7Q362.56-21.5 360.66-23.75L360.66-23.75 361.91-25Q364.21-23.25 364.46-19.75L364.46-19.75Q366.21-22.6 368.33-23.93 370.46-25.25 373.61-25.25L373.61-25.25Q377.46-25.25 379.51-23.28 381.56-21.3 381.51-17.4L381.51-17.4 381.36-0.05 379.36-0.05 379.41-16.85Q379.41-23.35 373.36-23.35L373.36-23.35Q370.61-23.35 368.63-22.03 366.66-20.7 364.66-17.9L364.66-17.9 364.66-0.05 362.56-0.05 362.56-17.7ZM399.06 0.3Q393.66 0.3 390.63-2.98 387.61-6.25 387.61-12.1L387.61-12.1Q387.61-16.15 389.06-19.18 390.51-22.2 393.21-23.85 395.91-25.5 399.46-25.5L399.46-25.5Q403.46-25.5 406.36-22.75L406.36-22.75 405.01-21.4Q403.81-22.55 402.46-23.08 401.11-23.6 399.46-23.6L399.46-23.6Q396.61-23.6 394.38-22.13 392.16-20.65 390.93-18 389.71-15.35 389.71-11.95L389.71-11.95Q389.71-7.15 392.28-4.38 394.86-1.6 399.31-1.6L399.31-1.6Q401.16-1.6 403.08-2.18 405.01-2.75 407.26-4L407.26-4 408.21-2.45Q406.21-1.15 403.81-0.43 401.41 0.3 399.06 0.3L399.06 0.3ZM414.3-11.75Q414.3-8.05 416.13-4.73 417.95-1.4 423.45-1.4L423.45-1.4Q425.5-1.4 427.3-1.98 429.1-2.55 431.35-3.8L431.35-3.8 432.3-2.25Q430.35-0.95 428-0.23 425.65 0.5 423.15 0.5L423.15 0.5Q417.95 0.5 415.08-2.8 412.2-6.1 412.2-11.65L412.2-11.65Q412.2-15.6 413.55-18.7 414.9-21.8 417.38-23.53 419.85-25.25 423.2-25.25L423.2-25.25Q426.1-25.25 428.38-23.93 430.65-22.6 431.93-20.28 433.2-17.95 433.2-14.95L433.2-14.95Q433.2-14.05 433-11.75L433-11.75 414.3-11.75ZM414.4-13.65L431-13.65Q431.1-14.2 431.1-15.05L431.1-15.05Q431.1-17.45 430.03-19.38 428.95-21.3 427.15-22.38 425.35-23.45 423.2-23.45L423.2-23.45Q419.7-23.45 417.28-20.75 414.85-18.05 414.4-13.65L414.4-13.65ZM454.7-34.25L456.95-34.25 456.95-18.15 459.65-18.25Q461.75-18.35 463.02-18.93 464.3-19.5 465.6-21.05L465.6-21.05Q467.45-23.35 469.15-26.5L469.15-26.5Q470.5-29 473-34.25L473-34.25 475.7-34.25 473.85-30.7Q471.45-26.05 470.9-25.05L470.9-25.05Q469.6-22.75 468.25-20.75L468.25-20.75Q467.8-20.1 466.85-19.1 465.9-18.1 465.15-17.55L465.15-17.55 475.55-2.65Q476.2-1.75 477.15-1.75L477.15-1.75Q477.75-1.75 478.05-1.9L478.05-1.9 479.15-0.15Q478.65 0.1 478.25 0.2 477.85 0.3 477.2 0.3L477.2 0.3Q475.25 0.3 473.9-1.5L473.9-1.5 463.1-16.75Q461.6-16.3 460.32-16.2 459.05-16.1 458.17-16.1 457.3-16.1 457.05-16.1L457.05-16.1 457.05-0.1 454.7-0.1 454.7-34.25ZM482.1-11.75Q482.1-8.05 483.92-4.73 485.75-1.4 491.25-1.4L491.25-1.4Q493.3-1.4 495.1-1.98 496.9-2.55 499.15-3.8L499.15-3.8 500.1-2.25Q498.15-0.95 495.8-0.23 493.45 0.5 490.95 0.5L490.95 0.5Q485.75 0.5 482.87-2.8 480-6.1 480-11.65L480-11.65Q480-15.6 481.35-18.7 482.7-21.8 485.17-23.53 487.65-25.25 491-25.25L491-25.25Q493.9-25.25 496.17-23.93 498.45-22.6 499.72-20.28 501-17.95 501-14.95L501-14.95Q501-14.05 500.8-11.75L500.8-11.75 482.1-11.75ZM482.2-13.65L498.8-13.65Q498.9-14.2 498.9-15.05L498.9-15.05Q498.9-17.45 497.82-19.38 496.75-21.3 494.95-22.38 493.15-23.45 491-23.45L491-23.45Q487.5-23.45 485.07-20.75 482.65-18.05 482.2-13.65L482.2-13.65ZM507.69-17.7Q507.69-21.5 505.79-23.75L505.79-23.75 507.04-25Q509.34-23.25 509.59-19.75L509.59-19.75Q511.34-22.6 513.47-23.93 515.59-25.25 518.74-25.25L518.74-25.25Q522.59-25.25 524.64-23.28 526.69-21.3 526.64-17.4L526.64-17.4 526.49-0.05 524.49-0.05 524.54-16.85Q524.54-23.35 518.49-23.35L518.49-23.35Q515.74-23.35 513.77-22.03 511.79-20.7 509.79-17.9L509.79-17.9 509.79-0.05 507.69-0.05 507.69-17.7ZM541.04 0.65Q537.54 0.65 535.87-1.23 534.19-3.1 534.19-7L534.19-7 534.19-31.15 536.29-31.15 536.29-24.75 544.34-24.75 544.34-22.75 536.29-22.75 536.29-7Q536.29-3.8 537.72-2.53 539.14-1.25 540.99-1.25L540.99-1.25Q542.69-1.25 544.09-2L544.09-2 545.14-0.25Q543.64 0.65 541.04 0.65L541.04 0.65Z" opacity="1" transform="matrix(1,0,0,1,0,0)" fill="#755bb4" class="undefined-text-1" data-fill-palette-color="secondary" id="text-1"></path></svg></g></svg></g></svg></g></svg></g></svg></g></svg></g></svg></g><defs></defs></svg><rect width="576" height="360" fill="none" stroke="none" visibility="hidden"></rect></g></svg></g></svg>